<svg xmlns="http://www.w3.org/2000/svg" x="0px" y="0px" width="64" height="64" viewBox="0 0 64 64">
  <path fill="#efc88e" d="M57,56H7c-1.657,0-3-1.343-3-3V11c0-1.657,1.343-3,3-3h50c1.657,0,3,1.343,3,3v42	C60,54.657,58.657,56,57,56z"></path><rect width="44" height="35" x="10" y="15" fill="#5dbc9d"></rect><path fill="none" stroke="#8d6c9f" stroke-linecap="round" stroke-linejoin="round" stroke-miterlimit="10" stroke-width="2" d="M57,56	H7c-1.657,0-3-1.343-3-3V11c0-1.657,1.343-3,3-3h50c1.657,0,3,1.343,3,3v42C60,54.657,58.657,56,57,56z"></path><path fill="#8d6c9f" d="M17,20.736c0.552,0,1-0.448,1-1v-2c0-0.552-0.448-1-1-1s-1,0.448-1,1v2 C16,20.288,16.448,20.736,17,20.736z"></path><path fill="#8d6c9f" d="M32,20.736c0.552,0,1-0.448,1-1v-2c0-0.552-0.448-1-1-1s-1,0.448-1,1v2 C31,20.288,31.448,20.736,32,20.736z"></path><path fill="#8d6c9f" d="M37,20.736c0.552,0,1-0.448,1-1v-2c0-0.552-0.448-1-1-1s-1,0.448-1,1v2 C36,20.288,36.448,20.736,37,20.736z"></path><path fill="#8d6c9f" d="M42,20.736c0.552,0,1-0.448,1-1v-2c0-0.552-0.448-1-1-1s-1,0.448-1,1v2 C41,20.288,41.448,20.736,42,20.736z"></path><path fill="#8d6c9f" d="M47,20.736c0.552,0,1-0.448,1-1v-2c0-0.552-0.448-1-1-1s-1,0.448-1,1v2 C46,20.288,46.448,20.736,47,20.736z"></path><path fill="#8d6c9f" d="M22,20.736c0.552,0,1-0.448,1-1v-2c0-0.552-0.448-1-1-1s-1,0.448-1,1v2 C21,20.288,21.448,20.736,22,20.736z"></path><path fill="#8d6c9f" d="M27,20.736c0.552,0,1-0.448,1-1v-2c0-0.552-0.448-1-1-1s-1,0.448-1,1v2 C26,20.288,26.448,20.736,27,20.736z"></path><line x1="10" x2="10" y1="27.461" y2="24" fill="none" stroke="#8d6c9f" stroke-linecap="round" stroke-linejoin="round" stroke-miterlimit="10" stroke-width="2"></line><polyline fill="none" stroke="#8d6c9f" stroke-linecap="round" stroke-linejoin="round" stroke-miterlimit="10" stroke-width="2" points="10,20 10,14 54,14 54,50 10,50 10,31"></polyline><circle cx="22" cy="31.111" r="3.111" fill="#fff" opacity=".35"></circle><path fill="#fff" d="M29,42H15v-1.774c0-2.027,3.111-4.448,7-4.448s7,2.421,7,4.448V42z" opacity=".35"></path><circle cx="22" cy="31.111" r="3.111" fill="none" stroke="#8d6c9f" stroke-linecap="round" stroke-linejoin="round" stroke-miterlimit="10" stroke-width="2"></circle><path fill="none" stroke="#8d6c9f" stroke-linecap="round" stroke-linejoin="round" stroke-miterlimit="10" stroke-width="2" d="M29,42	H15v-1.774c0-2.027,3.111-4.448,7-4.448s7,2.421,7,4.448V42z"></path><circle cx="42" cy="31.111" r="3.111" fill="#fff" opacity=".35"></circle><path fill="#fff" d="M49,42H35v-1.774c0-2.027,3.111-4.448,7-4.448s7,2.421,7,4.448V42z" opacity=".35"></path><rect width="11" height="2" x="37" y="47" fill="#fff"></rect><circle cx="42" cy="31.111" r="3.111" fill="none" stroke="#8d6c9f" stroke-linecap="round" stroke-linejoin="round" stroke-miterlimit="10" stroke-width="2"></circle><path fill="none" stroke="#8d6c9f" stroke-linecap="round" stroke-linejoin="round" stroke-miterlimit="10" stroke-width="2" d="M49,42	H35v-1.774c0-2.027,3.111-4.448,7-4.448s7,2.421,7,4.448V42z"></path><circle cx="32" cy="28" r="4" fill="#fff"></circle><path fill="#fff" d="M41,42H23v-2.281C23,37.113,27,34,32,34s9,3.113,9,5.719V42z"></path><path fill="none" stroke="#8d6c9f" stroke-linecap="round" stroke-linejoin="round" stroke-miterlimit="10" stroke-width="2" d="M41,42	H23v-2.281C23,37.113,27,34,32,34s9,3.113,9,5.719V42z"></path><circle cx="32" cy="28" r="4" fill="none" stroke="#8d6c9f" stroke-linecap="round" stroke-linejoin="round" stroke-miterlimit="10" stroke-width="2"></circle><rect width="11" height="4" x="37" y="46" fill="none" stroke="#8d6c9f" stroke-linecap="round" stroke-linejoin="round" stroke-miterlimit="10" stroke-width="2"></rect>
</svg>