<svg xmlns="http://www.w3.org/2000/svg" x="0px" y="0px" width="50" height="50" viewBox="0 0 100 100">
    <path d="M61.362,99.99c-3.896,0-7.339-1.959-9.356-4.992c-2.015,3.032-5.463,4.992-9.366,4.992h-6.816 c-5.751,0-10.536-4.292-11.167-9.998l-2.03-14.944c-1.594-0.092-3.157-0.557-4.552-1.357c-2.378-1.366-6.127-4.731-4.753-11.99 c0.169-1.543,0.989-8.899,1.91-15.121c0.007-0.048,0.022-0.146,0.022-0.146c0.521-3.505,0.98-6.036,1.405-7.737 c0.828-3.317,2.079-8.329,8.937-11.433c0.151-0.068,0.281-0.121,0.411-0.169l0.58-0.215c-1.559-3.593-1.559-7.122-1.559-8.977 c0-7.646,6.375-13.867,14.211-13.867c5.867,0,10.764,6.834,12.76,11.964c1.992-5.123,6.893-11.964,12.766-11.964 c7.835,0,14.21,6.221,14.21,13.867c0,0.956,0,2.357-0.214,3.982c2.268,0.606,4.308,1.964,5.732,3.879 c1.675,2.255,2.371,5.023,1.962,7.798c-0.066,0.451-0.163,0.898-0.29,1.337c0.567,1.353,0.893,2.659,1.177,3.797 c0.418,1.675,0.87,4.155,1.381,7.577c0.023,0.125,0.042,0.25,0.056,0.375c0.919,6.222,1.732,13.52,1.9,15.055 c1.373,7.259-2.375,10.623-4.75,11.987c-1.396,0.802-2.959,1.267-4.554,1.359L79.34,90.041c-0.628,5.679-5.41,9.949-11.162,9.949 H61.362z M51.602,26.885c0.314,0.115,0.436,0.117,0.437,0.117c0.024,0,0.14-0.021,0.362-0.114c-0.149-0.345-0.282-0.689-0.4-1.031 C51.883,26.197,51.75,26.541,51.602,26.885z" opacity=".35"></path><path fill="#f2f2f2" d="M59.362,97.99c-3.896,0-7.339-1.959-9.356-4.992c-2.015,3.032-5.463,4.992-9.366,4.992h-6.816 c-5.751,0-10.536-4.292-11.167-9.998l-2.03-14.944c-1.594-0.092-3.157-0.557-4.552-1.357c-2.378-1.366-6.127-4.731-4.753-11.99 c0.169-1.543,0.989-8.899,1.91-15.121c0.007-0.048,0.022-0.146,0.022-0.146c0.521-3.505,0.98-6.036,1.405-7.737 c0.828-3.317,2.079-8.329,8.937-11.433c0.151-0.068,0.281-0.121,0.411-0.169l0.58-0.215c-1.559-3.593-1.559-7.122-1.559-8.977 c0-7.646,6.375-13.867,14.211-13.867c5.867,0,10.764,3.541,12.76,8.671c1.992-5.123,6.893-8.671,12.766-8.671 c7.835,0,14.21,6.221,14.21,13.867c0,0.956,0,2.357-0.214,3.982c2.268,0.606,4.308,1.964,5.732,3.879 c1.675,2.255,2.371,5.023,1.962,7.798c-0.066,0.451-0.163,0.898-0.29,1.337c0.567,1.353,0.893,2.659,1.177,3.797 c0.418,1.675,0.87,4.155,1.381,7.577c0.023,0.125,0.042,0.25,0.056,0.375c0.919,6.222,1.732,13.52,1.9,15.055 c1.373,7.259-2.375,10.623-4.75,11.987c-1.396,0.802-2.959,1.267-4.554,1.359L77.34,88.041c-0.628,5.679-5.41,9.949-11.162,9.949 H59.362z"></path><path fill="#ffc7a3" d="M55.376,90.001c0.218,0.031,3.704,1.489,3.93,1.489h6.822c2.438,0,4.48-1.848,4.723-4.275 l2.525-41.214l2.933,20.141c2.494,2.245,5.07-0.011,7.442-2.383l-1.943-18.572l-4.417-12.09c-0.682-0.682-2.12-1.738-3.015-2.096 l-7.513-2.499v-2.967c2.509-2.48,3.581-6.979,3.581-9.816c0-4.078-3.461-7.385-7.729-7.385s-7.729,3.306-7.729,7.385 c0,2.834,1.069,7.326,3.571,9.808v2.976l-5.31,1.902l-1.871,34.596L55.376,90.001z"></path><path fill="#ffc7a3" d="M48.625,65.001l-1.871-34.596l-5.31-1.902v-2.976c2.502-2.482,3.571-6.974,3.571-9.808 c0-4.079-3.461-7.385-7.729-7.385s-7.729,3.307-7.729,7.385c0,2.837,1.072,7.336,3.581,9.816v2.967l-7.513,2.499 c-0.895,0.358-2.333,1.414-3.015,2.096l-4.417,12.09L16.25,63.759c2.372,2.372,4.948,4.628,7.442,2.383l2.933-20.141 l2.525,41.214c0.243,2.427,2.285,4.275,4.723,4.275h6.822c0.226,0,3.712-1.458,3.93-1.489L48.625,65.001z"></path><polygon fill="#f4665c" points="43.442,60.641 49.359,61.525 50.001,63.181 51.117,71.001 71.951,71.001 75.76,62.374 73.376,45.001 80.376,43.001 80.231,38.59 76.35,32.448 68.364,29.53 56.488,29.659 48.863,32.777"></polygon><polyline fill="none" stroke="#ffc7a3" stroke-linecap="round" stroke-linejoin="round" stroke-miterlimit="10" stroke-width="6" points="47,36 62,39 74.067,30.031"></polyline><path fill="#ffc7a3" d="M62,42c-0.196,0-0.393-0.019-0.588-0.058l-15-3c-1.625-0.325-2.678-1.906-2.354-3.53 c0.325-1.625,1.91-2.677,3.53-2.354l13.692,2.739l10.997-8.174c1.329-0.989,3.208-0.712,4.197,0.618 c0.988,1.33,0.711,3.209-0.618,4.197L63.79,41.408C63.268,41.795,62.64,42,62,42z"></path><polygon fill="#96c362" points="53,34 43.575,31.294 41,29 33,29 23.651,32.448 19.77,38.59 19.625,43.001 26.625,45.001 24.241,62.374 28.05,71.001 48.1,71.001 49,60.001 49,40 54,41"></polygon><polygon fill="#707cc0" points="45,89 42,91 32,91 30,89 26,60 48.475,60"></polygon><g><polygon fill="#707cc0" points="50.533,60.001 74.376,60.001 70,90 68,91 59,91 56,90"></polygon><path fill="none" stroke="#40396e" stroke-linecap="round" stroke-linejoin="round" stroke-miterlimit="10" stroke-width="3" d="M82.248,60.684c0,0-1.815-16.812-3.212-22.414c-0.499-2-0.55-3.413-2.028-4.877c1.739-2.112,1.063-4.622,0.12-5.816 c-0.906-1.148-3.327-2.457-5.66-0.87L68.113,29l-1.212-0.345v-2.96c3.448-2.876,3.572-6.962,3.572-9.792 c0-4.069-3.453-7.367-7.71-7.367c-4.258,0-7.222,3.299-7.222,7.367c0,2.826-0.372,6.849,3.562,9.784v2.969l-6.072,2.176 c-2.09,0.904-3.922,0.895-6.062,0l-6.072-2.176v-2.969c3.935-2.935,3.562-6.958,3.562-9.784c0-4.068-2.964-7.367-7.222-7.367 s-7.71,3.298-7.71,7.367c0,2.83,0.125,6.916,3.572,9.792v2.96l-6.824,2.53c-3.988,1.806-4.576,4.143-5.31,7.085 c-1.398,5.602-3.212,22.414-3.212,22.414c-0.466,2.291-0.323,4.29,1.556,5.369c1.988,1.141,4.57,0.386,5.706-2.279l0.601-2.285 l3.496,25.748c0.247,2.416,2.283,4.253,4.711,4.253h6.817c2.439,0,4.479-1.853,4.714-4.28l3.035-25.71h2.102l4.157,25.71 c0.234,2.427,2.275,4.28,4.714,4.28h6.817c2.428,0,4.463-1.837,4.711-4.253l3.496-25.748l0.601,2.285 c1.136,2.665,3.718,3.42,5.706,2.279C82.571,64.974,82.714,62.976,82.248,60.684z"></path></g><path fill="#40396e" d="M34,22h6l4-5c0,0-2.149-7.5-2.325-7S35.5,9.5,35.5,9.5l-5,3L30,17L34,22z"></path><path fill="#40396e" d="M60,22h6l4-5c0,0-2.149-7.5-2.325-7S61.5,9.5,61.5,9.5l-5,3L56,17L60,22z"></path>
</svg>